<svg width="251" height="56" viewBox="0 0 251 56" fill="none" xmlns="http://www.w3.org/2000/svg">
<path d="M30.4103 29.7408C29.0647 27.9616 25.5326 24.8711 21.7903 21.6035C19.8729 19.9255 17.8083 18.1252 16.2231 16.6368L25.1374 16.6495H31.4741C31.8315 16.6495 32.1805 16.4977 32.4286 16.2026C32.622 15.9707 32.7145 15.6924 32.7145 15.4141C32.7145 15.4099 32.7187 15.4057 32.7187 15.3973V9.12354C32.7187 8.76095 32.5631 8.41521 32.2898 8.1791L24.6496 1.53435C24.616 1.50484 24.5865 1.48375 24.5613 1.46689C24.3553 1.31932 24.103 1.22656 23.8297 1.22656H13.7759C9.78966 1.22656 6.39214 3.29252 4.69338 6.75403C4.16357 7.83338 3.83559 8.97597 3.68842 10.1439L1.78363 13.9722C1.7626 14.0144 1.74578 14.0523 1.72896 14.0945C0.265674 18.0577 1.09403 22.8262 3.89867 26.5365C5.24422 28.32 8.78049 31.4062 12.5228 34.678C14.4318 36.3476 16.488 38.1437 18.069 39.6279L10.7442 39.6321C10.7358 39.6321 10.7315 39.6363 10.7231 39.6363C10.4456 39.6405 10.1723 39.7291 9.94104 39.923L2.27559 46.3569C1.99386 46.5931 1.82987 46.9472 1.82987 47.3182V53.807C1.82987 54.4985 2.38912 55.0592 3.07872 55.0592H20.2429C24.2586 55.0592 27.6729 53.0101 29.3717 49.5781C29.7165 48.8825 29.9772 48.1615 30.1538 47.4152C30.4523 46.8376 32.1216 43.5827 32.6725 41.8878C33.9591 37.9667 33.1434 33.3583 30.4103 29.7408ZM13.8263 14.124C13.8011 14.086 13.7674 14.0481 13.7464 14.0143C13.0484 12.9772 12.876 11.9442 13.2797 11.1811C13.6119 10.5528 14.3183 10.1945 15.2097 10.1945H23.3797L28.0471 14.1366L13.8263 14.124ZM30.2252 12.6989L25.0869 8.35619V5.2151L30.2252 9.6885V12.6989ZM11.2067 42.1281L20.4784 42.1239C20.512 42.166 20.5457 42.2124 20.5751 42.2546C21.2731 43.2918 21.4455 44.3247 21.0418 45.0879C20.7097 45.7161 20.0032 46.0745 19.1118 46.0745H6.50147L11.2067 42.1281ZM27.1431 48.4566C25.8564 51.0538 23.3419 52.5464 20.2513 52.5464H4.33596V48.5831H19.1076C20.9283 48.5831 22.4757 47.7188 23.2452 46.2642C24.0819 44.6831 23.8591 42.6593 22.6439 40.8548C21.5506 39.2315 17.9639 36.0989 14.1711 32.7807C10.6895 29.7366 7.09014 26.5913 5.90017 25.0187C3.62114 22.0041 2.91894 18.1758 4.05845 15.022L4.12152 14.8955C4.55042 16.2911 5.2316 17.6403 6.17769 18.8757C8.72583 22.2022 12.4093 25.571 15.9666 28.8259C19.587 32.1399 23.3335 35.5634 25.8732 38.9238C27.6771 41.3101 28.3415 44.1476 27.7696 46.6942C27.7696 46.6985 27.7696 46.7027 27.7654 46.7069C27.6266 47.3056 27.4206 47.8959 27.1431 48.4566ZM30.2547 41.268L30.0318 41.7486C29.6113 40.235 28.8881 38.7593 27.8663 37.4059C25.192 33.8643 21.3572 30.3606 17.6527 26.9708C14.1711 23.7875 10.5718 20.4989 8.15818 17.3494C5.94643 14.4613 5.47968 10.8269 6.93877 7.85868C8.22966 5.23619 10.7231 3.731 13.7801 3.731H22.585V7.69424H15.2055C13.3848 7.69424 11.8374 8.56278 11.0679 10.0132C10.2312 11.5942 10.454 13.618 11.6692 15.4226C12.7625 17.0458 16.3492 20.1784 20.1462 23.4966C23.6278 26.5365 27.2272 29.6818 28.4172 31.2587C30.7004 34.2733 31.4026 38.1058 30.2547 41.268Z" fill="white"/>
<path d="M62.6343 43.4252C59.1328 43.4252 55.4603 42.5312 52.0971 40.4246C51.6208 40.1265 51.3398 39.5876 51.3398 39.0201V36.1501C51.3398 35.2275 52.0849 34.4803 53.0051 34.4803H53.2413C54.1614 34.4803 54.9065 35.2275 54.9065 36.1501V36.8932C54.9065 37.5219 55.2608 38.0975 55.8186 38.3874C57.9276 39.4937 60.3543 40.0041 62.6343 40.0041C64.9185 40.0041 67.3248 39.5182 69.4542 38.3914C70.0079 38.0975 70.3622 37.526 70.3622 36.8972V34.7743C70.3622 34.0721 69.9265 33.4475 69.2669 33.2066L52.5491 27.0909C51.8936 26.85 51.4538 26.2254 51.4538 25.5232V18.4073C51.4538 17.848 51.7266 17.3173 52.1949 17.0152C55.3992 14.9412 58.6564 14.0186 62.6303 14.0186C66.4983 14.0186 69.7881 14.9126 73.0942 17.0152C73.5665 17.3173 73.8433 17.8521 73.8433 18.4155V21.2896C73.8433 22.2123 73.0982 22.9594 72.1781 22.9594H71.9419C71.0218 22.9594 70.2767 22.2123 70.2767 21.2896V20.5302C70.2767 19.9138 69.9346 19.3504 69.3972 19.0524C67.394 17.946 65.2524 17.4357 62.6262 17.4357C60.1588 17.4357 58.0253 17.8929 55.9081 19.0524C55.3666 19.3504 55.0165 19.9138 55.0165 20.5343V23.1431C55.0165 23.8453 55.4521 24.4699 56.1117 24.7108L72.8295 30.8264C73.485 31.0673 73.9248 31.692 73.9248 32.3942V39.0242C73.9248 39.5876 73.6479 40.1265 73.1715 40.4246C69.9184 42.4658 66.311 43.4252 62.6343 43.4252Z" fill="white"/>
<path d="M102.458 41.3595V21.0896C102.458 20.5588 102.206 20.0648 101.786 19.7423C99.8767 18.2889 97.4744 17.4357 93.9403 17.4357C90.4877 17.4357 88.0895 18.1746 86.0863 19.7341C85.671 20.0567 85.4226 20.5466 85.4226 21.0732V41.3554C85.4226 42.278 84.6775 43.0251 83.7574 43.0251H83.5212C82.6011 43.0251 81.856 42.278 81.856 41.3554V19.3545C81.856 18.8891 82.0392 18.4359 82.3853 18.1297C85.1661 15.6638 89.2947 14.0186 93.9403 14.0186C98.5208 14.0186 102.715 15.6312 105.508 18.1338C105.85 18.44 106.029 18.8891 106.029 19.3463V41.3554C106.029 42.278 105.284 43.0251 104.364 43.0251H104.127C103.203 43.0292 102.458 42.2821 102.458 41.3595Z" fill="white"/>
<path d="M125.642 43.4253C122.042 43.4253 118.166 42.6047 114.746 40.6164C114.245 40.3225 113.948 39.7714 113.948 39.1876V18.2522C113.948 17.6725 114.241 17.1172 114.742 16.8274C118.036 14.9086 121.941 14.0553 125.642 14.0186C129.18 14.0186 133.121 14.8269 136.476 16.7825C136.997 17.0886 137.331 17.6357 137.331 18.244V21.2896C137.331 22.2123 136.586 22.9594 135.666 22.9594H135.43C134.51 22.9594 133.764 22.2123 133.764 21.2896V20.5017C133.764 19.8566 133.394 19.2728 132.816 18.9911C130.723 17.9705 128.211 17.4357 125.642 17.4357C123.154 17.4357 120.67 17.9174 118.472 18.987C117.889 19.2687 117.519 19.8566 117.519 20.5017V24.9027C117.519 25.8253 118.264 26.5724 119.184 26.5724H128.736C129.656 26.5724 130.401 27.3195 130.401 28.2422C130.401 29.1649 129.656 29.912 128.736 29.912H119.184C118.264 29.912 117.519 30.6591 117.519 31.5817V36.9136C117.519 37.5545 117.881 38.1342 118.451 38.42C120.548 39.4692 123.064 40.0082 125.642 40.0082C128.166 40.0082 130.658 39.5264 132.832 38.4241C133.402 38.1383 133.764 37.5586 133.764 36.9176V36.1501C133.764 35.2275 134.51 34.4803 135.43 34.4803H135.666C136.586 34.4803 137.331 35.2275 137.331 36.1501V39.1876C137.331 39.7673 137.038 40.3225 136.537 40.6124C133.235 42.5434 129.269 43.4253 125.642 43.4253Z" fill="white"/>
<path d="M145.376 41.359V16.0838C145.376 15.1612 146.122 14.4141 147.042 14.4141H147.278C148.198 14.4141 148.943 15.1612 148.943 16.0838V37.9786C148.943 38.9013 149.688 39.6484 150.608 39.6484H163.328C164.248 39.6484 164.993 40.3955 164.993 41.3181V41.359C164.993 42.2816 164.248 43.0287 163.328 43.0287H147.042C146.122 43.0287 145.376 42.2816 145.376 41.359Z" fill="white"/>
<path d="M171.528 41.359V16.0838C171.528 15.1612 172.273 14.4141 173.193 14.4141H173.429C174.349 14.4141 175.095 15.1612 175.095 16.0838V37.9786C175.095 38.9013 175.84 39.6484 176.76 39.6484H189.479C190.399 39.6484 191.145 40.3955 191.145 41.3181V41.359C191.145 42.2816 190.399 43.0287 189.479 43.0287H173.193C172.273 43.0287 171.528 42.2816 171.528 41.359Z" fill="white"/>
<path d="M208.384 43.4253C204.785 43.4253 200.908 42.6047 197.492 40.6164C196.992 40.3225 196.694 39.7714 196.694 39.1876V18.2522C196.694 17.6725 196.988 17.1172 197.488 16.8274C200.782 14.9086 204.687 14.0553 208.388 14.0186C211.926 14.0186 215.867 14.8269 219.222 16.7825C219.744 17.0886 220.077 17.6357 220.077 18.244V21.2896C220.077 22.2123 219.332 22.9594 218.412 22.9594H218.176C217.256 22.9594 216.511 22.2123 216.511 21.2896V20.5017C216.511 19.8566 216.14 19.2728 215.562 18.9911C213.469 17.9705 210.957 17.4357 208.384 17.4357C205.896 17.4357 203.412 17.9174 201.214 18.987C200.632 19.2687 200.261 19.8566 200.261 20.5017V24.9027C200.261 25.8253 201.006 26.5724 201.926 26.5724H211.478C212.398 26.5724 213.144 27.3195 213.144 28.2422C213.144 29.1649 212.398 29.912 211.478 29.912H201.926C201.006 29.912 200.261 30.6591 200.261 31.5817V36.9136C200.261 37.5545 200.623 38.1342 201.193 38.42C203.29 39.4692 205.807 40.0082 208.384 40.0082C210.908 40.0082 213.4 39.5264 215.574 38.4241C216.144 38.1383 216.507 37.5586 216.507 36.9176V36.1501C216.507 35.2275 217.252 34.4803 218.172 34.4803H218.408C219.328 34.4803 220.073 35.2275 220.073 36.1501V39.1876C220.073 39.7673 219.78 40.3225 219.279 40.6124C215.977 42.5434 212.012 43.4253 208.384 43.4253Z" fill="white"/>
<path d="M246.465 41.359V34.6758C246.465 34.1614 246.229 33.6797 245.83 33.3571C244.051 31.9201 241.608 31.2261 237.943 31.2261H233.347C232.427 31.2261 231.681 31.9732 231.681 32.8958V41.359C231.681 42.2816 230.936 43.0287 230.016 43.0287H229.78C228.86 43.0287 228.115 42.2816 228.115 41.359V16.0838C228.115 15.1612 228.86 14.4141 229.78 14.4141H238.338C244.401 14.4141 246.885 15.5613 249.429 18.4721C249.69 18.7702 249.832 19.1621 249.832 19.5622V26.1718C249.832 26.6944 249.588 27.1843 249.177 27.5068C248.863 27.7518 248.534 27.9804 248.179 28.1927C247.113 28.8337 247.129 30.4299 248.2 31.0627C248.644 31.324 249.059 31.6098 249.421 31.9038C249.808 32.2181 250.028 32.6958 250.028 33.1979V41.359C250.028 42.2816 249.283 43.0287 248.363 43.0287H248.126C247.21 43.0287 246.465 42.2816 246.465 41.359ZM246.266 21.0768C246.266 20.6196 246.074 20.1827 245.749 19.8643C244.075 18.2231 242.215 17.8312 238.338 17.8312H233.347C232.427 17.8312 231.681 18.5783 231.681 19.5009V26.4535C231.681 27.3762 232.427 28.1233 233.347 28.1233H238.143C241.885 28.1233 244.055 27.4293 245.688 25.9881C246.054 25.6656 246.266 25.2043 246.266 24.7144V21.0768V21.0768Z" fill="white"/>
</svg>
